<?xml version="1.0" standalone="no"?>
<!DOCTYPE svg PUBLIC "-//W3C//DTD SVG 20010904//EN"
 "http://www.w3.org/TR/2001/REC-SVG-20010904/DTD/svg10.dtd">
<svg version="1.0" xmlns="http://www.w3.org/2000/svg"
 width="1400.000000pt" height="1400.000000pt" viewBox="0 0 1400.000000 1400.000000"
 preserveAspectRatio="xMidYMid meet">

<g transform="translate(0.000000,1400.000000) scale(0.100000,-0.100000)"
fill="#000000" stroke="none">
<path d="M0 7000 l0 -7000 7000 0 7000 0 0 7000 0 7000 -7000 0 -7000 0 0
-7000z m2211 3023 c6 -16 15 -36 20 -45 5 -10 13 -47 18 -82 5 -35 14 -72 19
-82 5 -11 13 -46 17 -79 4 -33 11 -68 17 -79 5 -10 14 -47 19 -83 5 -36 13
-70 17 -77 4 -6 12 -40 19 -76 11 -61 16 -84 44 -192 6 -24 14 -67 17 -97 4
-30 12 -56 18 -58 14 -5 31 34 39 93 4 27 14 61 21 76 8 15 14 41 14 58 0 18
7 46 14 63 8 18 19 55 24 82 6 28 15 64 20 80 12 34 27 93 46 176 8 30 18 65
25 77 6 11 11 34 11 49 0 16 9 54 20 86 11 31 20 68 20 81 0 43 33 56 146 56
119 0 137 -9 153 -80 17 -77 32 -133 47 -181 8 -26 14 -54 14 -63 0 -9 9 -42
20 -73 11 -32 20 -70 20 -86 0 -15 6 -40 14 -55 7 -15 17 -49 21 -77 4 -27 13
-62 21 -77 8 -15 14 -42 14 -60 0 -18 7 -45 14 -60 8 -15 18 -52 21 -82 8 -65
29 -100 45 -76 5 8 10 32 10 54 0 21 6 59 14 85 8 25 20 71 26 101 6 30 17 84
24 120 8 36 19 78 25 93 6 16 11 45 11 65 0 20 7 49 14 64 8 15 18 53 21 85 4
32 12 66 17 77 5 10 14 47 19 82 5 36 18 83 29 104 l20 40 103 0 c56 0 108 -4
116 -9 12 -8 12 -19 2 -73 -7 -34 -19 -77 -27 -95 -8 -17 -14 -43 -14 -58 0
-15 -7 -41 -14 -58 -8 -18 -19 -54 -24 -82 -6 -27 -15 -63 -20 -80 -10 -30
-22 -72 -46 -170 -7 -27 -18 -63 -24 -78 -7 -16 -12 -39 -12 -52 0 -14 -7 -42
-15 -62 -8 -21 -19 -58 -24 -83 -5 -25 -14 -58 -19 -75 -10 -29 -16 -51 -47
-175 -14 -58 -35 -117 -48 -137 -6 -9 -45 -13 -138 -13 -125 0 -130 1 -138 23
-25 66 -34 97 -43 142 -5 28 -16 64 -24 82 -7 17 -14 45 -14 63 0 17 -5 41
-12 53 -6 12 -17 47 -24 77 -20 87 -35 143 -46 175 -5 17 -14 50 -19 75 -5 25
-16 62 -24 83 -8 20 -15 52 -15 70 0 38 -22 73 -38 63 -7 -4 -12 -24 -12 -44
0 -20 -7 -49 -14 -64 -8 -16 -18 -49 -22 -75 -4 -27 -13 -57 -20 -68 -8 -11
-14 -31 -14 -45 0 -14 -9 -51 -20 -83 -11 -31 -20 -67 -20 -79 -1 -13 -7 -34
-15 -48 -8 -14 -14 -38 -15 -55 0 -16 -7 -42 -14 -57 -8 -16 -18 -49 -22 -74
-4 -26 -13 -59 -20 -73 -8 -14 -14 -40 -14 -57 0 -17 -9 -43 -21 -58 -20 -26
-22 -26 -144 -26 l-124 0 -17 33 c-10 17 -23 57 -30 87 -21 88 -35 143 -46
175 -5 17 -15 57 -22 90 -7 33 -18 70 -24 82 -7 12 -12 36 -12 53 0 17 -6 43
-14 58 -7 15 -17 47 -21 71 -4 24 -14 59 -21 77 -8 18 -14 47 -14 64 0 17 -5
41 -11 52 -7 12 -17 47 -25 77 -19 83 -34 142 -46 176 -6 17 -14 48 -18 70
-23 112 -23 117 -9 126 8 5 60 9 117 9 l102 0 11 -27z m5524 11 c136 -32 214
-84 267 -179 20 -35 23 -54 23 -150 0 -102 -2 -113 -26 -150 -39 -60 -100
-115 -127 -115 -35 0 -24 -33 16 -46 43 -14 115 -85 146 -146 23 -43 26 -62
26 -143 0 -125 -22 -171 -121 -260 -90 -80 -172 -95 -526 -95 l-283 0 -15 23
c-13 21 -15 101 -13 636 3 593 4 613 22 627 31 22 515 20 611 -2z m-1497 -246
l3 -117 117 -3 117 -3 3 -93 c2 -77 0 -93 -13 -99 -9 -3 -62 -6 -118 -7 l-102
-1 -3 -224 c-2 -219 -2 -225 20 -248 19 -20 30 -23 104 -23 107 0 114 -6 114
-107 0 -105 -8 -113 -118 -113 -47 0 -120 8 -161 18 -68 15 -81 22 -128 70
-29 28 -55 62 -57 75 -2 12 -9 46 -15 75 -6 30 -11 145 -11 257 0 153 -3 205
-13 213 -7 6 -40 12 -72 14 l-60 3 0 95 0 95 75 5 c87 6 87 6 89 136 1 49 6
85 13 92 9 9 43 12 113 10 l100 -3 3 -117z m4471 103 c6 -10 9 -63 8 -117 l-2
-99 110 -5 c61 -3 116 -9 123 -13 16 -11 17 -158 0 -175 -8 -8 -48 -12 -115
-12 -87 0 -104 -3 -112 -17 -5 -10 -7 -110 -4 -233 4 -177 8 -218 20 -232 13
-14 33 -18 99 -18 107 0 114 -6 114 -107 0 -106 -8 -113 -119 -112 -152 1
-270 47 -317 124 -18 30 -23 42 -43 120 -7 23 -10 126 -9 246 1 113 -2 210 -5
216 -4 6 -34 11 -67 10 -33 0 -62 2 -65 5 -12 11 -16 158 -5 178 9 17 20 20
76 20 60 0 65 2 74 25 5 14 12 62 16 108 3 45 7 88 10 95 2 8 32 12 103 12 88
0 102 -2 110 -19z m-5312 -210 c135 -28 197 -74 253 -186 44 -88 38 -95 -88
-95 l-95 0 -33 36 c-32 37 -88 64 -134 64 -43 0 -104 -29 -117 -57 -27 -56 29
-99 159 -123 27 -5 53 -12 60 -16 6 -4 35 -13 62 -20 121 -30 190 -76 226
-150 25 -50 27 -168 5 -198 -8 -11 -15 -28 -15 -37 0 -18 -106 -119 -125 -119
-6 0 -28 -10 -50 -21 -35 -19 -55 -21 -181 -21 -123 0 -146 3 -180 21 -21 12
-42 21 -47 21 -17 0 -100 71 -131 112 -38 51 -63 125 -47 141 6 6 51 10 111 8
l101 -2 52 -55 53 -54 87 0 c81 0 88 2 112 27 37 41 29 133 -13 133 -9 0 -27
6 -38 14 -12 8 -45 18 -75 22 -30 4 -66 13 -81 20 -15 8 -36 14 -48 14 -30 0
-159 66 -186 95 -30 32 -64 110 -64 144 0 85 80 216 145 237 11 4 26 12 34 18
11 9 78 24 192 45 3 1 46 -7 96 -18z m3403 -4 c36 -8 76 -20 90 -28 131 -73
179 -126 234 -264 17 -42 25 -202 12 -223 -5 -9 -93 -12 -330 -12 -209 0 -326
-4 -332 -10 -16 -16 7 -94 36 -126 52 -56 94 -74 174 -75 82 -1 110 11 161 67
l30 33 107 2 c112 1 128 -2 128 -29 0 -33 -82 -142 -138 -186 -101 -77 -139
-89 -280 -89 -102 1 -133 5 -185 24 -105 38 -212 138 -250 234 -26 65 -32 96
-35 194 -3 109 8 178 39 231 5 8 15 29 22 45 17 37 107 135 124 135 6 0 16 6
20 13 14 21 95 54 173 70 78 16 94 15 200 -6z m-4390 -1 c79 -15 126 -36 188
-82 51 -40 102 -96 102 -114 0 -9 5 -21 12 -28 38 -38 73 -242 48 -282 -8 -13
-61 -16 -342 -20 -373 -6 -358 -2 -323 -78 22 -47 50 -78 100 -111 34 -22 51
-26 115 -26 81 0 85 2 150 68 l38 38 113 -3 c99 -3 114 -5 117 -20 2 -10 -4
-25 -12 -34 -9 -8 -16 -21 -16 -28 0 -7 -9 -24 -21 -37 -12 -13 -29 -33 -38
-44 -27 -34 -103 -89 -155 -113 -43 -20 -64 -23 -178 -23 -113 0 -138 3 -187
23 -31 13 -62 29 -69 35 -7 7 -17 13 -22 13 -13 0 -120 111 -120 125 0 7 -7
18 -15 25 -8 7 -15 20 -15 29 -1 9 -9 34 -20 56 -16 33 -19 62 -20 160 0 84 4
128 14 147 8 15 17 40 21 57 3 16 13 35 21 42 8 6 14 17 14 25 0 7 26 39 58
71 71 71 84 80 116 89 14 3 30 12 37 20 6 8 28 14 48 15 20 1 47 5 61 9 39 12
98 11 180 -4z m5461 0 c119 -21 221 -98 271 -205 21 -44 22 -58 21 -374 0
-181 -4 -332 -9 -337 -11 -10 -170 -17 -180 -7 -3 3 -10 27 -15 54 -11 58 -26
76 -41 49 -16 -29 -54 -62 -106 -92 -42 -25 -52 -26 -171 -26 -117 0 -129 2
-176 26 -52 28 -125 92 -125 111 0 5 -7 24 -16 40 -29 56 -29 124 0 188 26 57
107 147 133 147 8 0 24 6 36 14 33 20 75 25 252 27 88 1 166 7 173 12 28 22 4
95 -48 147 -23 23 -32 25 -120 25 -106 0 -130 -11 -177 -80 l-24 -35 -99 0
c-88 0 -100 2 -110 19 -5 11 -7 28 -4 38 33 95 111 187 191 223 104 48 214 59
344 36z m1723 3 c34 -6 80 -21 104 -32 63 -32 142 -112 142 -145 0 -8 8 -27
17 -42 28 -48 8 -60 -102 -60 l-93 0 -33 37 c-51 59 -124 77 -203 49 -25 -9
-43 -23 -53 -44 -13 -27 -13 -33 2 -56 10 -15 29 -29 44 -33 14 -3 35 -12 46
-19 11 -8 32 -14 48 -14 15 0 43 -6 61 -14 18 -7 53 -17 77 -21 24 -4 54 -13
66 -21 12 -8 30 -14 40 -14 24 0 106 -77 126 -118 9 -18 19 -53 23 -78 15
-103 -73 -236 -193 -289 -50 -23 -69 -25 -191 -25 -182 0 -228 16 -329 118
-47 47 -73 81 -73 95 0 12 -7 32 -15 44 -24 34 0 42 120 44 84 1 110 -2 114
-12 2 -8 23 -33 46 -56 45 -46 55 -48 170 -43 66 2 98 31 98 88 0 22 -3 44 -7
50 -11 18 -97 53 -146 59 -25 3 -57 12 -72 19 -15 8 -40 14 -55 14 -16 0 -37
6 -48 14 -11 7 -31 17 -45 21 -67 20 -136 104 -155 189 -10 45 33 150 80 199
48 49 113 87 152 88 15 0 37 4 48 9 29 12 119 12 189 -1z m-8433 -1979 c18
-10 19 -24 19 -255 0 -168 3 -245 11 -245 6 0 33 19 60 42 28 23 67 49 87 57
48 19 211 20 272 0 58 -18 151 -80 190 -127 48 -58 50 -60 60 -84 6 -13 14
-30 19 -38 21 -33 45 -136 45 -199 1 -71 -30 -216 -51 -242 -7 -8 -13 -19 -13
-24 0 -20 -125 -155 -144 -155 -5 0 -17 -6 -25 -13 -68 -57 -258 -76 -354 -35
-58 25 -103 54 -128 82 -24 29 -49 14 -49 -29 0 -29 -5 -37 -27 -46 -41 -16
-181 -8 -193 11 -15 24 -13 1283 2 1298 15 15 191 16 219 2z m3307 -42 c14
-14 16 -146 2 -168 -8 -13 -52 -15 -292 -16 l-283 0 -3 -177 -2 -177 215 0
c130 0 224 -4 236 -10 16 -9 19 -22 19 -85 0 -109 10 -105 -251 -105 l-219 0
0 -259 c0 -311 10 -290 -137 -285 -53 2 -100 7 -105 12 -11 11 -6 1252 5 1270
12 17 797 18 815 0z m730 -350 c8 -8 12 -50 12 -124 0 -128 3 -124 -91 -124
-106 0 -204 -64 -223 -145 -4 -16 -11 -50 -17 -75 -5 -25 -9 -133 -8 -240 2
-108 -1 -201 -5 -208 -5 -8 -41 -12 -111 -12 -100 0 -105 1 -110 23 -3 12 -4
216 -3 452 l3 430 95 3 c52 1 101 -2 107 -6 7 -4 16 -36 19 -70 4 -34 10 -62
13 -62 4 0 22 18 40 40 37 45 113 100 139 100 9 0 28 7 42 14 32 18 82 20 98
4z m707 -7 c74 -20 134 -51 180 -96 52 -51 67 -76 91 -150 17 -53 19 -92 19
-357 0 -227 -3 -300 -13 -310 -13 -13 -121 -22 -159 -13 -37 9 -53 33 -53 81
0 24 -3 44 -7 44 -4 0 -27 -22 -53 -49 -25 -26 -56 -52 -70 -56 -14 -4 -34
-14 -45 -21 -14 -10 -53 -14 -131 -14 -95 0 -119 3 -161 23 -57 26 -102 64
-139 118 -24 35 -27 48 -27 133 -1 87 2 98 27 134 82 118 172 151 435 157 87
2 136 8 141 15 4 6 3 32 -1 56 -12 64 -57 99 -149 115 -32 6 -116 -13 -145
-33 -16 -11 -37 -34 -45 -52 l-15 -31 -113 -3 c-97 -2 -113 0 -119 14 -3 9 -2
24 4 33 6 9 14 31 18 49 3 18 10 32 15 32 5 0 11 8 14 18 16 48 156 151 208
153 13 0 39 7 58 14 42 17 163 15 235 -4z m1147 -6 c28 -10 71 -40 104 -72
l57 -54 31 32 c128 131 345 156 494 56 52 -35 82 -74 118 -152 l27 -60 3 -308
c2 -177 -1 -318 -6 -332 -9 -24 -12 -25 -109 -25 -69 0 -102 4 -109 13 -8 9
-12 109 -15 288 -3 298 -9 333 -64 389 -22 22 -35 25 -107 28 -74 3 -84 1
-115 -22 -33 -24 -46 -42 -72 -96 -9 -17 -14 -116 -18 -303 -5 -232 -8 -279
-21 -287 -8 -5 -59 -10 -112 -10 -86 0 -98 2 -108 19 -6 12 -10 126 -10 300 0
265 -1 283 -21 320 -30 59 -76 84 -155 84 -57 0 -71 -5 -106 -30 -22 -16 -51
-49 -64 -74 -24 -43 -24 -49 -24 -316 0 -236 -2 -274 -16 -288 -13 -13 -35
-15 -117 -13 -91 3 -103 5 -112 24 -7 13 -8 166 -5 450 l5 429 105 0 105 0 3
-40 c5 -56 16 -63 49 -29 37 38 78 65 133 85 58 22 187 19 252 -6z m1585 10
c19 -8 47 -15 60 -15 14 0 36 -9 50 -20 14 -11 32 -20 39 -20 18 0 144 -125
144 -143 0 -8 6 -20 14 -26 8 -7 18 -27 22 -44 3 -18 11 -38 17 -45 14 -18 23
-190 10 -203 -6 -6 -141 -11 -337 -12 -346 -1 -359 -3 -337 -46 6 -11 11 -28
11 -38 0 -23 50 -76 101 -108 30 -20 52 -25 102 -25 75 0 117 18 164 69 l33
36 105 5 c61 3 110 1 116 -4 14 -15 11 -52 -6 -66 -8 -7 -15 -18 -15 -24 0
-30 -104 -136 -163 -164 -100 -49 -113 -52 -229 -52 -96 0 -122 4 -171 24 -32
13 -64 29 -70 35 -6 6 -16 11 -22 11 -16 0 -113 98 -139 140 -44 70 -66 159
-66 266 0 67 5 108 15 127 8 15 17 43 21 63 3 19 10 37 15 40 5 3 15 20 23 37
22 51 104 125 181 164 94 48 244 66 312 38z m-6330 -32 c3 -10 14 -37 24 -60
11 -23 19 -48 19 -56 0 -7 7 -22 15 -33 8 -10 15 -25 15 -33 0 -13 23 -68 56
-134 8 -16 14 -35 14 -43 0 -7 10 -35 21 -61 42 -94 47 -108 53 -135 10 -45
43 -37 51 11 4 22 13 45 21 52 8 6 14 20 14 31 0 10 8 36 19 56 44 89 51 104
51 118 0 8 9 31 20 51 11 21 20 45 20 54 0 9 7 22 15 29 8 7 15 20 15 29 0 9
10 36 22 61 11 25 24 52 28 60 6 12 32 16 124 18 135 3 143 -2 107 -72 -11
-24 -21 -50 -21 -58 0 -9 -7 -21 -15 -28 -8 -7 -15 -19 -15 -26 0 -8 -9 -31
-20 -51 -11 -21 -20 -45 -20 -54 0 -9 -7 -22 -15 -29 -8 -7 -15 -20 -15 -29 0
-9 -6 -25 -14 -36 -7 -11 -17 -31 -20 -45 -4 -14 -20 -52 -36 -85 -15 -33 -38
-82 -50 -110 -12 -27 -30 -68 -41 -91 -10 -23 -19 -48 -19 -56 0 -9 -7 -21
-15 -28 -8 -7 -15 -20 -15 -29 0 -9 -9 -29 -20 -46 -11 -16 -20 -40 -20 -51 0
-12 -7 -27 -15 -34 -8 -7 -15 -19 -15 -26 0 -8 -9 -31 -20 -51 -11 -21 -20
-45 -20 -53 0 -8 -7 -24 -15 -34 -8 -11 -15 -26 -15 -34 0 -8 -9 -25 -20 -39
-11 -14 -20 -33 -20 -42 0 -9 -10 -28 -23 -43 -21 -27 -26 -28 -124 -29 -55
-1 -106 2 -113 6 -14 8 -4 63 16 86 8 8 17 30 20 47 4 17 13 37 20 43 8 6 14
18 14 26 0 8 9 31 19 51 11 20 26 54 35 75 9 20 24 53 33 73 l17 35 -32 25
c-18 14 -32 31 -32 37 0 7 -9 29 -20 50 -11 20 -20 45 -20 56 0 10 -7 24 -15
31 -8 7 -15 19 -15 28 0 8 -9 34 -20 58 -11 24 -29 64 -40 88 -11 24 -20 49
-20 57 0 8 -7 23 -15 33 -8 11 -15 30 -15 42 0 12 -7 27 -15 34 -8 7 -15 19
-15 26 0 13 -26 75 -56 137 -8 16 -14 33 -14 39 0 6 -10 30 -21 54 -35 69 -28
74 111 74 106 0 121 -2 127 -17z m5811 -1955 c17 -17 17 -1279 0 -1296 -8 -8
-47 -12 -108 -12 -61 0 -100 4 -108 12 -17 17 -17 1279 0 1296 8 8 47 12 108
12 61 0 100 -4 108 -12z m-5639 -18 c93 -14 185 -52 252 -105 33 -27 109 -119
109 -132 0 -6 7 -16 15 -23 8 -7 15 -19 15 -28 0 -8 10 -34 22 -58 18 -36 19
-48 10 -69 -12 -26 -12 -26 -128 -23 l-116 3 -27 50 c-55 103 -93 135 -196
165 -44 13 -158 9 -216 -7 -73 -20 -157 -97 -194 -177 -28 -63 -55 -184 -55
-251 0 -93 45 -254 84 -303 33 -40 103 -102 116 -102 8 0 24 -7 34 -15 15 -11
50 -15 138 -15 101 0 123 3 160 22 52 26 89 65 129 136 l30 52 109 0 c85 0
112 -3 124 -16 20 -20 20 -18 -7 -84 -29 -69 -56 -120 -73 -137 -7 -7 -21 -23
-31 -36 -24 -30 -112 -97 -128 -97 -7 0 -18 -7 -25 -15 -7 -8 -28 -17 -49 -21
-20 -3 -55 -12 -79 -20 -67 -22 -245 -18 -322 6 -34 11 -70 20 -80 20 -10 0
-23 7 -30 15 -7 8 -18 15 -26 15 -7 0 -19 6 -26 13 -7 6 -31 24 -54 40 -40 27
-107 98 -130 140 -88 154 -109 252 -100 465 4 96 9 138 21 154 8 13 15 34 15
48 0 14 9 39 20 55 11 17 20 36 20 44 0 24 137 181 157 181 6 0 13 6 16 13 4
11 29 25 127 71 19 9 73 21 120 27 46 5 87 13 90 16 3 2 21 3 40 0 19 -3 73
-11 119 -17z m3149 -153 c6 -7 13 -62 14 -123 l3 -109 115 -5 115 -5 3 -87 c3
-109 0 -111 -137 -106 l-96 3 -3 -230 -2 -230 33 -22 c27 -19 47 -23 108 -23
45 0 80 -5 87 -12 18 -18 16 -162 -3 -178 -24 -20 -289 -9 -313 13 -10 9 -25
17 -33 17 -17 0 -55 38 -85 85 -31 49 -42 147 -43 367 -1 155 -4 207 -13 211
-7 2 -35 2 -63 0 -27 -2 -55 0 -62 4 -13 9 -21 163 -9 182 4 6 33 11 64 11 31
0 62 4 68 8 24 16 34 55 34 134 0 52 5 89 12 96 17 17 192 16 206 -1z m-1973
-216 c3 -5 19 -13 36 -16 41 -9 118 -48 144 -73 59 -56 125 -144 125 -165 0
-7 8 -24 18 -37 14 -21 17 -48 17 -171 0 -118 -3 -152 -17 -182 -10 -20 -26
-53 -35 -73 -19 -39 -137 -164 -156 -164 -6 0 -18 -6 -26 -13 -34 -29 -146
-57 -228 -57 -80 0 -175 25 -213 56 -8 6 -25 15 -36 18 -54 16 -184 184 -184
237 0 11 -7 36 -15 56 -9 21 -15 67 -15 115 0 47 6 93 15 115 8 19 15 45 15
57 0 37 96 171 156 216 62 47 86 60 106 60 13 1 34 7 48 15 29 16 235 21 245
6z m1199 -6 c11 -8 30 -15 42 -15 34 0 129 -97 157 -162 13 -30 27 -85 30
-123 9 -97 11 -590 3 -604 -5 -7 -46 -11 -116 -11 -89 0 -109 3 -114 16 -3 9
-6 139 -6 289 0 239 -2 278 -18 312 -37 83 -103 113 -216 98 -40 -6 -59 -15
-89 -43 -76 -73 -77 -80 -77 -380 0 -195 -3 -271 -12 -280 -16 -16 -210 -16
-226 0 -9 9 -12 120 -12 438 0 498 -10 458 112 459 91 0 108 -11 108 -70 0
-24 5 -42 14 -45 7 -3 38 19 71 50 32 31 65 56 74 56 9 0 25 7 35 15 28 21
213 20 240 0z m1790 -1 c3 -9 6 -59 6 -112 0 -125 -6 -132 -109 -132 -69 0
-81 -3 -126 -32 -36 -24 -57 -48 -75 -83 -24 -49 -25 -57 -28 -290 -2 -151 -7
-244 -14 -252 -14 -17 -199 -18 -216 -1 -9 9 -12 120 -12 439 0 367 2 430 15
443 11 11 36 14 101 13 100 -2 114 -13 114 -87 0 -26 2 -49 5 -52 3 -3 37 26
76 64 42 40 79 68 92 68 12 1 33 7 47 15 35 20 116 20 124 -1z m701 7 c3 -5
20 -13 38 -16 70 -15 172 -93 220 -168 52 -82 67 -113 67 -138 0 -12 8 -46 17
-75 15 -47 15 -61 4 -116 -8 -35 -16 -82 -18 -105 -3 -23 -11 -47 -19 -54 -8
-6 -14 -17 -14 -24 0 -15 -98 -145 -110 -145 -5 0 -15 -6 -22 -12 -28 -26 -78
-58 -90 -58 -7 0 -26 -8 -43 -17 -24 -14 -55 -18 -150 -18 -95 0 -126 4 -150
18 -16 9 -37 17 -46 17 -9 0 -22 7 -29 15 -7 8 -18 15 -24 15 -25 0 -166 154
-166 182 0 7 -6 23 -14 34 -8 11 -20 56 -27 100 -14 92 0 251 26 290 8 13 15
28 15 34 0 49 189 219 245 220 11 1 31 7 45 15 29 16 235 21 245 6z"/>
<path d="M7361 9828 c-3 -9 -5 -87 -3 -172 l3 -156 127 0 c183 1 251 28 287
113 19 47 19 90 -1 130 -42 80 -90 98 -277 100 -113 2 -130 0 -136 -15z"/>
<path d="M7364 9307 c-2 -7 -3 -87 -2 -177 l3 -165 175 0 175 1 37 29 c51 41
91 170 58 190 -5 3 -10 14 -10 24 0 34 -67 85 -128 98 -80 17 -301 17 -308 0z"/>
<path d="M8565 9453 c-49 -34 -62 -49 -81 -92 -10 -21 -12 -37 -6 -43 7 -7
216 -12 406 -8 5 0 6 18 2 41 -5 29 -17 51 -44 76 -49 46 -69 53 -160 53 -68
0 -82 -3 -117 -27z"/>
<path d="M4190 9457 c-39 -24 -80 -63 -80 -74 0 -5 -7 -20 -14 -35 -9 -17 -11
-30 -5 -34 5 -3 101 -6 212 -6 l202 0 -1 35 c-1 42 -31 83 -82 114 -53 33
-181 32 -232 0z"/>
<path d="M9653 9131 c-87 -15 -121 -113 -60 -174 18 -18 36 -23 99 -26 64 -2
83 0 115 19 36 20 93 94 93 119 0 6 6 20 13 31 10 17 9 22 -3 30 -17 11 -192
11 -257 1z"/>
<path d="M3300 7071 c-52 -33 -96 -86 -105 -127 -4 -16 -11 -41 -17 -57 -8
-21 -6 -47 8 -109 17 -76 23 -87 70 -134 49 -49 55 -52 118 -59 129 -13 203
16 260 104 35 52 36 56 36 150 -1 81 -4 101 -23 132 -62 100 -113 129 -224
129 -68 0 -84 -4 -123 -29z"/>
<path d="M7667 6753 c-41 -12 -51 -21 -69 -58 -20 -41 -20 -45 -5 -77 22 -46
64 -68 130 -68 31 0 66 4 79 9 62 24 147 147 133 191 -6 18 -15 20 -113 19
-63 -1 -127 -7 -155 -16z"/>
<path d="M10475 7101 c-73 -19 -138 -80 -139 -131 l-1 -35 185 -3 c226 -4 232
-3 223 41 -7 38 -36 76 -79 106 -34 24 -137 36 -189 22z"/>
<path d="M5445 4704 c-43 -22 -72 -51 -95 -96 -17 -32 -20 -58 -20 -154 0
-103 2 -118 23 -147 63 -90 126 -117 237 -102 104 14 177 135 167 275 -7 107
-34 161 -108 215 -28 21 -44 25 -103 25 -45 0 -82 -6 -101 -16z"/>
<path d="M9134 4710 c-34 -13 -92 -79 -99 -111 -4 -16 -11 -31 -16 -34 -16
-10 -10 -197 6 -219 8 -11 15 -26 15 -34 0 -8 21 -35 46 -60 l45 -46 88 -1
c87 0 88 0 133 37 71 58 88 100 88 218 0 82 -4 107 -22 142 -24 47 -70 95
-106 109 -29 11 -150 11 -178 -1z"/>
</g>
</svg>
